<?xml version="1.0" encoding="UTF-8"?>
<svg width="88px" height="16px" viewBox="0 0 88 16" version="1.1" xmlns="http://www.w3.org/2000/svg" xmlns:xlink="http://www.w3.org/1999/xlink">
    <title>Group</title>
    <g id="Final-Hi-Fi" stroke="none" stroke-width="1" fill="none" fill-rule="evenodd">
        <g id="Group" transform="translate(3.004, 1.0413)" stroke="#979797">
            <g id="Path-9">
                <path d="M64.3592848,1.50979737 C64.8426965,0.277623781 65.3428985,-0.105443981 65.8598908,0.360594081 C66.3768832,0.826632143 66.6179005,1.87786535 66.5829427,3.51429371 L82.1128325,3.283696 C82.1128325,1.09456533 82.4915754,0 83.2490612,0 C84.006547,0 84.289695,2.33333333 84.0985052,7 C84.2993497,11.571792 84.0162018,13.857688 83.2490612,13.857688 C82.4819207,13.857688 82.1031778,12.8110633 82.1128325,10.717814 L66.5829427,10.717814 C66.5829427,12.4147098 66.3419254,13.4613345 65.8598908,13.857688 C65.3778562,14.2540416 64.8776542,13.822481 64.3592848,12.5630064 L30.8162813,12.5630064 L30.0958086,9.43853879 C26.934705,9.41311936 25.0673404,9.31412076 24.4937147,9.14154298 C23.6332761,8.88267632 23.8790351,6.00573715 24.4937147,5.74526785 C24.9035011,5.57162165 26.7708657,5.50455427 30.0958086,5.54406571 L30.8162813,1.50979737 L64.3592848,1.50979737 Z"></path>
                <polygon points="24 6.41386184 0 6.78142941 1.26686217 7.41386184 24 6.91386184"></polygon>
            </g>
            <polygon id="Path-9" fill="#4C2B2B" points="31.5529665 11.8820493 39.3527109 11.8820493 39.3527109 2.00707672 31.5529665 2.00707672"></polygon>
            <polygon id="Path-9" fill="#353A3E" points="39.3527109 2.00707672 42.8047121 2.00707672 42.8047121 12.3141107 39.3527109 12.3141107"></polygon>
        </g>
    </g>
</svg>