<?xml version="1.0" encoding="UTF-8"?>
<svg width="27px" height="53px" viewBox="0 0 27 53" version="1.1" xmlns="http://www.w3.org/2000/svg" xmlns:xlink="http://www.w3.org/1999/xlink">
    <title>Group</title>
    <defs>
        <linearGradient x1="51.3960348%" y1="49.282911%" x2="51.8260213%" y2="70.8924261%" id="linearGradient-1">
            <stop stop-color="#523C27" offset="0%"></stop>
            <stop stop-color="#4F3A26" offset="48.2838542%"></stop>
            <stop stop-color="#422C18" offset="61.8141977%"></stop>
            <stop stop-color="#462F1A" offset="100%"></stop>
        </linearGradient>
    </defs>
    <g id="Final-Hi-Fi" stroke="none" stroke-width="1" fill="none" fill-rule="evenodd">
        <g id="Detectives-office" transform="translate(-27.2042, -421.4799)" stroke="#000000">
            <g id="Group" transform="translate(28, 423)">
                <path d="M24.8745506,4.99721772 C25.3002655,5.7531588 24.5059489,44.4032287 24.5059489,44.7285395 C24.5059489,45.0538503 0.654438331,51.2161002 0.364805963,50.9941468 C0.204395566,50.8712199 0.332884749,35.583802 0.234244448,21.7336577 C0.135604147,7.88351339 -0.239521712,0.298926559 0.234244448,0.0390677454 C0.792279055,-0.267011969 7.43273497,1.28599097 13.6878747,2.58072275 C19.3355765,3.74972286 24.6725559,4.63853615 24.8745506,4.99721772 Z" id="Path" fill="#E4DDDD"></path>
                <path d="M11.402726,20.3635227 L14.2950207,20.3635227 C14.9931325,22.7597104 15.5990389,24.4718694 16.11274,25.5 C16.3013153,25.8774184 16.4564201,26.3222226 16.7680066,26.7739999 C17.1261477,27.293278 17.8778486,28.1726454 19.0231092,29.4121019 L17.8414639,31.8429175 L14.8413732,32.6406464 L11.402726,29.6969514 L11.402726,19.9578042" id="Path" fill="#FFFFFF" transform="translate(15.2129, 26.2992) scale(1, -1) translate(-15.2129, -26.2992)"></path>
                <path d="M11.402726,22.7037624 C11.8574883,23.343147 12.1345334,23.8491279 12.2338611,24.2217051 C12.6743634,25.8740236 13.3049863,27.1048471 13.6814838,27.8319665 C14.1853246,28.8050206 14.7881989,29.5169284 15.4901066,29.96769 L18.7919606,29.2750876" id="Path" fill="#FFFFFF" transform="translate(15.0973, 26.3357) scale(1, -1) translate(-15.0973, -26.3357)"></path>
                <line x1="15.4901066" y1="19.96769" x2="14.5878444" y2="22.7037624" id="Path" transform="translate(15.039, 21.3357) scale(1, -1) translate(-15.039, -21.3357)"></line>
                <line x1="12.198857" y1="10.5112581" x2="14.4462603" y2="11.5078715" id="Path"></line>
                <path d="M13.1282177,9.36008266 C12.6592947,9.36008266 12.2882879,9.59949137 12.0982317,9.9600942 C11.9081754,10.320697 11.8564851,10.4266083 11.8669839,10.8654807 C11.8774828,11.3043531 11.8423516,11.4836872 12.0982317,11.8131301 C12.3541117,12.1425729 12.664219,12.297119 13.0973175,12.297119 C13.5304159,12.297119 13.7972367,12.1868765 13.9893619,11.9214922 C14.1814871,11.6561078 14.3375717,11.487136 14.3375717,10.9335112 C14.3375717,10.3798863 14.3446525,10.1978488 14.0891326,9.8387394 C13.8336127,9.47962998 13.5971406,9.36008266 13.1282177,9.36008266 Z" id="Path"></path>
                <g transform="translate(11.4151, 36.8534)" id="Path">
                    <path d="M1.6514072,0 C1.20539101,0 0.852507771,0.258280166 0.671735728,0.647307611 C0.490963685,1.03633506 0.441798407,1.15059478 0.451784388,1.62406144 C0.46177037,2.0975281 0.533087061,2.31556277 0.776467413,2.67097405 C1.01984777,3.02638532 1.21007478,3.168549 1.62201648,3.168549 C2.03395819,3.168549 2.28774485,3.04961662 2.47048481,2.76331329 C2.65322477,2.47700996 2.80168461,2.29471892 2.80168461,1.6974544 C2.80168461,1.10018988 2.8084195,0.903803295 2.56538169,0.516386982 C2.32234389,0.12897067 2.09742339,0 1.6514072,0 Z"></path>
                    <line x1="0.67996251" y1="0.795026999" x2="3.0311236" y2="2.3793015"></line>
                </g>
            </g>
        </g>
    </g>
</svg>