<?xml version="1.0" encoding="UTF-8"?>
<svg width="53px" height="42px" viewBox="0 0 53 42" version="1.1" xmlns="http://www.w3.org/2000/svg" xmlns:xlink="http://www.w3.org/1999/xlink">
    <title>Group</title>
    <g id="Act-I" stroke="none" stroke-width="1" fill="none" fill-rule="evenodd">
        <g id="Group" transform="translate(1.094, 0.8261)">
            <path d="M14.5912189,7.67709567 L8.62942943,7.09491362 L7.58876793,7.09491362 L9.41285092,6.11141656 L18.369062,5.03430793 L32.8734855,0 L34.1061658,5.03430793 L36.298173,5.03430793 L38.2718811,6.11141656 L42.6580056,6.11141656 L46.8177742,4.75481598 L49.9301673,4.75481598 L45.1381369,9.30360976 L41.1519717,8.63892918 L40.2150886,9.30360976 L42.6580056,12.1683543 L42.9294408,14.6162587 L45.1381369,18.137627 L45.1381369,21.0223215 L42.9294408,23.3029528 L41.79389,27.1614886 L45.93942,38.2969236 C43.9670925,38.3073321 42.5155825,38.43142 41.5848901,38.6691874 C40.6541976,38.9069549 39.3768276,39.480024 37.7527799,40.3883949 L28.7594676,37.0387649 L27.4720627,38.6691874 L24.1113579,36.8371841 L19.9343716,37.3737093 L19.1056192,33.1740149 L11.5626741,34.1681727 L10.3572063,33.1740149 L2.79288381,32.1144922 L2.02856287,31.7379324 L2.02856287,28.9745083 L0.312594453,27.1614886 L1.18011182,25.9374825 L1.8189894e-12,22.1373672 L0.977277372,19.8860111 L2.46551239,19.1127997 L2.46551239,16.6738602 L5.16560631,11.7550935 L7.25155892,7.50446427 L14.5912189,7.67709567 Z" id="Path" stroke="#000000" fill="#C09776"></path>
            <path d="M4.51742229,18.7640477 L13.6807915,10.6687995 C13.7600482,12.2003909 13.6204434,13.549599 13.2619772,14.7164236 C12.9035109,15.8832482 12.289635,16.9866555 11.4203494,18.0266456" id="Path" stroke="#000000"></path>
            <polyline id="Path" stroke="#000000" points="30.2069819 20.836599 36.0008125 23.9851687 37.5900705 23.4808092 42.3933074 32.1355669 37.5900705 32.1355669 33.8893321 33.3893733 29.2208538 35.9332369"></polyline>
            <path d="M35.0601293,33.4597735 C34.4801158,34.1756678 34.1901091,35.0001556 34.1901091,35.9332369 C34.1901091,36.8663181 34.4801158,37.853672 35.0601293,38.8952986" id="Path" stroke="#000000"></path>
            <polyline id="Path" stroke="#000000" points="40.3065196 10.3220154 40.3065196 12.4805167 29.2208538 21.371693 25.7759729 18.3665506 18.6426998 17.0896277 23.8977588 15.2807631 25.7759729 15.2807631"></polyline>
            <path d="M14.269723,10.6687995 L25.1544162,6.97867548 C25.4336689,6.26652373 25.7195309,5.78559204 26.0120022,5.5358804 C26.3044735,5.28616877 26.6933198,5.19103537 27.178541,5.25048019" id="Path" stroke="#000000"></path>
            <polyline id="Path" stroke="#000000" points="27.6556858 10.3220154 25.8827409 15.8468542 24.601765 15.8468542 27.178541 16.2443459"></polyline>
            <polyline id="Path" stroke="#000000" points="14.09855 21.8137537 21.0674666 18.2126684 23.3672251 19.3752958 16.449738 22.3598097"></polyline>
            <path d="M1.71613156,20.1941974 L4.84327862,20.2862391 L6.94926589,22.3598097 L7.14857344,23.3671287 L12.416674,23.3671287 C16.199438,23.5887513 18.09082,23.8130633 18.09082,24.0400647 C18.09082,24.2670661 16.9939972,24.9696993 14.8003515,26.1479644 L14.8003515,27.885932" id="Path" stroke="#000000"></path>
            <path d="M16.8497961,29.363911 L18.4971987,27.7215349 C20.6059528,26.2378963 21.6603299,25.6181351 21.6603299,25.8622515 C21.6603299,26.1063678 21.1775973,27.108148 20.2121323,28.8675921 L19.6218385,32.1338772" id="Path" stroke="#000000"></path>
            <path d="M22.8781797,34.3798784 L26.5948888,30.2608254 C25.4810209,30.7758173 24.5926298,31.0584342 23.9297156,31.1086761 C23.2668014,31.158918 22.6821534,30.9879418 22.1757716,30.5957477" id="Path" stroke="#000000"></path>
            <line x1="40.3065196" y1="12.3595479" x2="43.082822" y2="14.8050421" id="Path" stroke="#C09776"></line>
            <path d="M40.0274051,17.733679 C41.6046733,19.3740246 42.4822621,20.0600816 42.6601715,19.79185 C42.8380809,19.5236183 43.4218258,18.6913218 44.4114062,17.2949604" id="Path" stroke="#000000"></path>
        </g>
    </g>
</svg>